<svg xmlns="http://www.w3.org/2000/svg" viewBox="0 0 800 520">
  <defs>
    <linearGradient id="g1" x1="0" y1="0" x2="1" y2="1">
      <stop offset="0" stop-color="#f97316" stop-opacity="0.85"/>
      <stop offset="1" stop-color="#ffffff" stop-opacity="0.1"/>
    </linearGradient>
    <linearGradient id="g2" x1="1" y1="0" x2="0" y2="1">
      <stop offset="0" stop-color="#2f9bff" stop-opacity="0.65"/>
      <stop offset="1" stop-color="#f97316" stop-opacity="0.25"/>
    </linearGradient>
    <filter id="blur" x="-50%" y="-50%" width="200%" height="200%">
      <feGaussianBlur stdDeviation="18"/>
    </filter>
  </defs>

  <g opacity="0.95">
    <circle cx="560" cy="120" r="120" fill="url(#g1)" filter="url(#blur)"/>
    <circle cx="240" cy="380" r="140" fill="url(#g2)" filter="url(#blur)"/>
  </g>

  <g fill="none" stroke="#ffffff" stroke-opacity="0.25" stroke-width="2">
    <path d="M110 150c120-120 280-140 420-60s190 210 130 340"/>
    <path d="M160 420c140 40 280 10 410-90"/>
    <path d="M220 110c80 20 160 60 240 120"/>
  </g>

  <g fill="none" stroke="url(#g1)" stroke-opacity="0.7" stroke-width="3">
    <path d="M120 310c90-140 220-200 390-180s260 130 270 260"/>
  </g>

  <g>
    <circle cx="140" cy="310" r="4" fill="#ffffff" fill-opacity="0.7"/>
    <circle cx="320" cy="210" r="4" fill="#ffffff" fill-opacity="0.55"/>
    <circle cx="520" cy="250" r="4" fill="#ffffff" fill-opacity="0.5"/>
    <circle cx="640" cy="380" r="4" fill="#ffffff" fill-opacity="0.55"/>
  </g>

  <g fill="none" stroke="#ffffff" stroke-opacity="0.12" stroke-width="1.5">
    <circle cx="400" cy="260" r="190"/>
    <circle cx="400" cy="260" r="130"/>
    <circle cx="400" cy="260" r="70"/>
  </g>

  <g opacity="0.7">
    <path d="M470 165c-28-18-66-18-94 0-32 20-38 57-22 87 14 26 38 36 69 32" fill="none" stroke="url(#g2)" stroke-width="4" stroke-linecap="round"/>
    <path d="M440 268l38-38" fill="none" stroke="#ffffff" stroke-opacity="0.45" stroke-width="3" stroke-linecap="round"/>
  </g>
</svg>
