<svg xmlns="http://www.w3.org/2000/svg" viewBox="0 0 220 60">
  <defs>
    <linearGradient id="pg" x1="0" y1="0" x2="1" y2="1">
      <stop offset="0" stop-color="#2f9bff" stop-opacity="0.95"/>
      <stop offset="1" stop-color="#ffffff" stop-opacity="0.55"/>
    </linearGradient>
  </defs>
  <g fill="none" stroke="url(#pg)" stroke-width="3" stroke-linecap="round" stroke-linejoin="round" opacity="0.9">
    <path d="M22 38c10-20 24-26 40-18 14 7 22 21 28 32"/>
    <path d="M98 18c18-10 36-8 52 6 12 10 20 22 26 34"/>
    <path d="M62 22l12 12"/>
    <path d="M138 26l10 14"/>
  </g>
  <g>
    <circle cx="24" cy="38" r="6" fill="#ffffff" fill-opacity="0.65"/>
    <circle cx="90" cy="50" r="6" fill="#2f9bff" fill-opacity="0.85"/>
    <circle cx="98" cy="18" r="6" fill="#ffffff" fill-opacity="0.55"/>
    <circle cx="178" cy="52" r="6" fill="#2f9bff" fill-opacity="0.7"/>
  </g>
  <g fill="#ffffff" fill-opacity="0.8">
    <rect x="120" y="14" width="92" height="10" rx="5" opacity="0.18"/>
    <rect x="120" y="30" width="80" height="10" rx="5" opacity="0.14"/>
    <rect x="120" y="46" width="68" height="10" rx="5" opacity="0.1"/>
  </g>
</svg>
